<svg xmlns="http://www.w3.org/2000/svg" viewBox="0 0 240 56" fill="none">
  
  <defs>
    <linearGradient id="dw-w" x1="0" y1="0" x2="1" y2="1"><stop offset="0" stop-color="#F0D78F"></stop><stop offset="1" stop-color="#C9A340"></stop></linearGradient>
    <linearGradient id="dw-u" x1="0" y1="0" x2="1" y2="1"><stop offset="0" stop-color="#6FACE6"></stop><stop offset="1" stop-color="#326DA8"></stop></linearGradient>
    <linearGradient id="dw-r" x1="0" y1="0" x2="1" y2="1"><stop offset="0" stop-color="#E27460"></stop><stop offset="1" stop-color="#9C2E1B"></stop></linearGradient>
    <linearGradient id="dw-b" x1="0" y1="0" x2="1" y2="1"><stop offset="0" stop-color="#9A8C73"></stop><stop offset="1" stop-color="#4A4234"></stop></linearGradient>
  </defs>
  <g transform="translate(24 16)">
    <path d="M0 6 L14 12 L14 28 L0 22 Z" fill="#3D3829"></path>
    <path d="M0 6 L-14 12 L-14 28 L0 22 Z" fill="#4F4836"></path>
    <path d="M0 -8 L7 -4 L0 0 L-7 -4 Z" fill="url(#dw-w)"></path>
    <path d="M7 -4 L14 0 L7 4 L0 0 Z" fill="url(#dw-u)"></path>
    <path d="M0 0 L7 4 L0 8 L-7 4 Z" fill="url(#dw-r)"></path>
    <path d="M-7 -4 L0 0 L-7 4 L-14 0 Z" fill="url(#dw-b)"></path>
    <path d="M-14 0 L14 0 M0 -8 L0 8" stroke="#FAF9F7" stroke-width="0.5" stroke-opacity="0.4"></path>
    <path d="M0 -8 L14 0 L0 8 L-14 0 Z" stroke="#FAF9F7" stroke-width="0.7" stroke-opacity="0.6" fill="none"></path>
    <path d="M0 6 L0 22 M-14 12 L-14 28 M14 12 L14 28 M-14 28 L0 22 L14 28" stroke="#FAF9F7" stroke-width="0.5" stroke-opacity="0.3" fill="none"></path>
    <circle cx="0" cy="0" r="1.85" fill="#6FB36F" stroke="#2E5A2E" stroke-width="0.4"></circle>
  </g>
  <text x="50" y="38" class="word">scryven</text>
</svg>