<svg xmlns="http://www.w3.org/2000/svg" viewBox="0 0 64 64" fill="none">
  
  <defs>
    <linearGradient id="m-w-top" x1="0" y1="0" x2="1" y2="1">
      <stop offset="0" stop-color="#F0D78F"></stop><stop offset="1" stop-color="#C9A340"></stop>
    </linearGradient>
    <linearGradient id="m-u-top" x1="0" y1="0" x2="1" y2="1">
      <stop offset="0" stop-color="#6FACE6"></stop><stop offset="1" stop-color="#326DA8"></stop>
    </linearGradient>
    <linearGradient id="m-r-top" x1="0" y1="0" x2="1" y2="1">
      <stop offset="0" stop-color="#E27460"></stop><stop offset="1" stop-color="#9C2E1B"></stop>
    </linearGradient>
    <linearGradient id="m-b-top" x1="0" y1="0" x2="1" y2="1">
      <stop offset="0" stop-color="#7A6F5E"></stop><stop offset="1" stop-color="#3B342A"></stop>
    </linearGradient>
  </defs>

  <g transform="translate(32 14)">
    
    <path d="M0 8 L20 18 L20 42 L0 32 Z" fill="#C9BFA8"></path>
    
    <path d="M0 8 L-20 18 L-20 42 L0 32 Z" fill="#DED4BB"></path>

    
    <path d="M0 -10 L10 -5 L0 0 L-10 -5 Z" fill="url(#m-w-top)"></path>
    <path d="M10 -5 L20 0 L10 5 L0 0 Z" fill="url(#m-u-top)"></path>
    <path d="M0 0 L10 5 L0 10 L-10 5 Z" fill="url(#m-r-top)"></path>
    <path d="M-10 -5 L0 0 L-10 5 L-20 0 Z" fill="url(#m-b-top)"></path>

    
    <path d="M-20 0 L20 0 M0 -10 L0 10" stroke="#1F1D1A" stroke-width="0.6" stroke-opacity="0.45"></path>
    
    <path d="M0 -10 L20 0 L0 10 L-20 0 Z" stroke="#1F1D1A" stroke-width="0.85" stroke-opacity="0.85" fill="none"></path>
    
    <path d="M0 8 L0 32 M-20 18 L-20 42 M20 18 L20 42" stroke="#1F1D1A" stroke-width="0.6" stroke-opacity="0.4"></path>
    
    <path d="M-20 42 L0 32 L20 42" stroke="#1F1D1A" stroke-width="0.6" stroke-opacity="0.5" fill="none"></path>

    
    <circle cx="0" cy="0" r="2.4" fill="#4A8A4A" stroke="#2E5A2E" stroke-width="0.5"></circle>
  </g>
</svg>